<?xml version="1.0" encoding="UTF-8" standalone="no"?>
<!-- Created with Inkscape (http://www.inkscape.org/) -->

<svg
   width="48"
   height="48"
   viewBox="0 0 12.7 12.7"
   version="1.1"
   id="svg5"
   inkscape:version="1.2.2 (b0a8486541, 2022-12-01)"
   sodipodi:docname="file.svg"
   xmlns:inkscape="http://www.inkscape.org/namespaces/inkscape"
   xmlns:sodipodi="http://sodipodi.sourceforge.net/DTD/sodipodi-0.dtd"
   xmlns="http://www.w3.org/2000/svg"
   xmlns:svg="http://www.w3.org/2000/svg">
  <sodipodi:namedview
     id="namedview7"
     pagecolor="#ffffff"
     bordercolor="#000000"
     borderopacity="0.25"
     inkscape:showpageshadow="2"
     inkscape:pageopacity="0"
     inkscape:pagecheckerboard="true"
     inkscape:deskcolor="#d1d1d1"
     inkscape:document-units="mm"
     showgrid="false"
     inkscape:zoom="7.1177705"
     inkscape:cx="-25.288818"
     inkscape:cy="52.123063"
     inkscape:window-width="2256"
     inkscape:window-height="1431"
     inkscape:window-x="0"
     inkscape:window-y="0"
     inkscape:window-maximized="1"
     inkscape:current-layer="g8159" />
  <defs
     id="defs2">
    <linearGradient
       id="linearGradient11222"
       inkscape:swatch="solid">
      <stop
         style="stop-color:#bcbcbc;stop-opacity:1;"
         offset="0"
         id="stop11220" />
    </linearGradient>
  </defs>
  <g
     inkscape:label="Layer 1"
     inkscape:groupmode="layer"
     id="layer1">
    <g
       id="g8159"
       transform="translate(4.9999999e-8,0.4966908)">
      <g
         id="g8149">
        <g
           id="g8145">
          <path
             id="path7913"
             style="fill:#0088aa;fill-opacity:1;stroke:none;stroke-width:0.18683;stroke-dasharray:none;stroke-opacity:1"
             d="m 2.9223022,0.39002839 c -0.3311613,0 -0.5978963,0.26673496 -0.5978963,0.59789632 V 10.718693 c 0,0.331162 0.266735,0.597897 0.5978963,0.597897 h 6.8553956 c 0.3311612,0 0.5978962,-0.266735 0.5978962,-0.597897 V 3.2141454 L 7.5514771,0.39002839 Z"
             sodipodi:nodetypes="ssssssccs" />
        </g>
      </g>
      <path
         id="rect7887"
         style="fill:#006680;fill-opacity:1;stroke:none;stroke-width:0.18683;stroke-dasharray:none;stroke-opacity:1"
         d="M 10.375594,3.2141454 7.5514771,0.39002839 V 2.6162491 c 0,0.020004 0.0012,0.039939 0.0031,0.059428 1.37e-4,0.0014 3.69e-4,0.00274 5.16e-4,0.00413 0.00159,0.015202 0.0035,0.030123 0.0062,0.044958 0.00142,0.00778 0.00346,0.015588 0.00517,0.023254 0.0035,0.015674 0.00718,0.031333 0.011886,0.046509 0.00581,0.018743 0.012608,0.036883 0.020153,0.054777 0.00755,0.017894 0.015621,0.035247 0.024805,0.052193 0.00786,0.014511 0.016839,0.028626 0.025838,0.042375 0.00294,0.00449 0.00572,0.00903 0.00878,0.013436 0.00785,0.011311 0.016216,0.022352 0.024805,0.033073 0.00452,0.00564 0.00923,0.011068 0.013953,0.016536 0.00656,0.00761 0.01322,0.014956 0.020154,0.022221 0.00313,0.00328 0.0061,0.00662 0.0093,0.00982 0.00231,0.00231 0.00489,0.00445 0.00724,0.00672 0.011434,0.011074 0.022848,0.021903 0.03514,0.032039 0.01475,0.012163 0.030096,0.023902 0.045992,0.034623 0.012788,0.00863 0.02632,0.016652 0.039791,0.024288 0.00694,0.00393 0.01408,0.00771 0.021187,0.011369 0.013389,0.00689 0.026866,0.013234 0.040825,0.01912 0.017894,0.00755 0.036034,0.014347 0.054777,0.020154 0.013047,0.00404 0.026372,0.00718 0.039791,0.010335 0.011932,0.00281 0.023972,0.00515 0.036173,0.00723 0.013494,0.00231 0.027032,0.00481 0.040824,0.0062 0.020145,0.00203 0.040797,0.0031 0.061495,0.0031 z" />
      <rect
         style="fill:#ffffff;fill-opacity:1;stroke:#ffffff;stroke-width:0.4;stroke-dasharray:none;stroke-opacity:1"
         id="rect8253"
         width="5.0424824"
         height="0.2019453"
         x="3.7801647"
         y="9.3010597"
         ry="0.019195955" />
      <rect
         style="fill:#ffffff;fill-opacity:1;stroke:#ffffff;stroke-width:0.4;stroke-dasharray:none;stroke-opacity:1"
         id="rect8257"
         width="5.0424824"
         height="0.2019453"
         x="3.7801647"
         y="7.7135611"
         ry="0.019195955" />
      <rect
         style="fill:#ffffff;fill-opacity:1;stroke:#ffffff;stroke-width:0.4;stroke-dasharray:none;stroke-opacity:1"
         id="rect8259"
         width="5.0424824"
         height="0.2019453"
         x="3.7801647"
         y="6.126061"
         ry="0.019195955" />
      <rect
         style="fill:#ffffff;fill-opacity:1;stroke:#ffffff;stroke-width:0.4;stroke-dasharray:none;stroke-opacity:1"
         id="rect8261"
         width="3.3311901"
         height="0.2019453"
         x="3.7801647"
         y="4.5385609"
         ry="0.019195955" />
    </g>
  </g>
</svg>
